<?xml version="1.0" encoding="UTF-8"?> <svg xmlns="http://www.w3.org/2000/svg" id="Camada_2" viewBox="0 0 217.92 39.78"><defs><style>.cls-1{fill:#c5767f;stroke-width:0px;}</style></defs><g id="Camada_1-2"><polygon class="cls-1" points=".26 .4 14.33 .4 14.33 4.04 4.7 4.04 4.7 10.75 13.64 10.75 13.64 14.36 4.7 14.36 4.7 24.71 .26 24.71 .26 .4"></polygon><path class="cls-1" d="M20.89,17.82l-2.09,6.89h-4.58L22.01.4h5.66l7.9,24.31h-4.76l-2.2-6.89h-7.72ZM27.86,14.47l-1.91-5.99c-.47-1.48-.87-3.14-1.23-4.55h-.07c-.36,1.41-.72,3.1-1.15,4.55l-1.88,5.99h6.24Z"></path><path class="cls-1" d="M55.63,23.99c-1.05.5-3.35,1.08-6.31,1.08-7.72,0-12.41-4.83-12.41-12.23C36.91,4.83,42.5.04,49.93.04c2.92,0,4.98.58,5.88,1.05l-.94,3.54c-1.15-.5-2.78-.94-4.76-.94-4.94,0-8.51,3.1-8.51,8.95,0,5.34,3.1,8.73,8.48,8.73,1.77,0,3.64-.36,4.83-.87l.72,3.5Z"></path><polygon class="cls-1" points="73.02 13.92 63.86 13.92 63.86 21.07 74.1 21.07 74.1 24.71 59.42 24.71 59.42 .4 73.56 .4 73.56 4.04 63.86 4.04 63.86 10.32 73.02 10.32 73.02 13.92"></polygon><path class="cls-1" d="M85.46.76c1.98-.32,4.44-.54,7.07-.54,4.55,0,7.65.94,9.88,2.81,2.38,1.91,3.82,4.83,3.82,8.95,0,4.36-1.48,7.58-3.79,9.67-2.42,2.2-6.28,3.32-11,3.32-2.56,0-4.51-.14-5.99-.32V.76ZM89.9,21.35c.61.11,1.55.11,2.45.11,5.77.04,9.2-3.17,9.2-9.34.04-5.34-3.07-8.44-8.62-8.44-1.41,0-2.38.11-3.03.25v17.42Z"></path><path class="cls-1" d="M120.06,25.11c-6.89,0-11.22-5.27-11.22-12.37S113.56,0,120.42,0s11.25,5.37,11.25,12.3c0,8.15-4.94,12.81-11.58,12.81h-.04ZM120.27,21.54c4.29,0,6.71-3.97,6.71-9.05,0-4.58-2.27-8.91-6.71-8.91s-6.75,4.22-6.75,9.05,2.45,8.91,6.71,8.91h.04Z"></path><path class="cls-1" d="M152.92,23.99c-1.05.5-3.35,1.08-6.31,1.08-7.72,0-12.41-4.83-12.41-12.23,0-8.01,5.59-12.81,13.02-12.81,2.92,0,4.98.58,5.88,1.05l-.94,3.54c-1.15-.5-2.78-.94-4.76-.94-4.94,0-8.51,3.1-8.51,8.95,0,5.34,3.1,8.73,8.48,8.73,1.77,0,3.64-.36,4.83-.87l.72,3.5Z"></path><polygon class="cls-1" points="162.08 4.11 155.16 4.11 155.16 .4 173.52 .4 173.52 4.11 166.52 4.11 166.52 24.71 162.08 24.71 162.08 4.11"></polygon><path class="cls-1" d="M185.31,25.11c-6.89,0-11.22-5.27-11.22-12.37s4.73-12.73,11.58-12.73,11.25,5.37,11.25,12.3c0,8.15-4.94,12.81-11.58,12.81h-.04ZM185.53,21.54c4.29,0,6.71-3.97,6.71-9.05,0-4.58-2.27-8.91-6.71-8.91s-6.75,4.22-6.75,9.05,2.45,8.91,6.71,8.91h.04Z"></path><path class="cls-1" d="M200.75.76c1.7-.32,4.15-.54,6.71-.54,3.5,0,5.84.58,7.5,1.95,1.33,1.12,2.09,2.81,2.09,4.91,0,3.14-2.13,5.27-4.44,6.06v.11c1.77.65,2.81,2.34,3.39,4.69.79,3.03,1.44,5.84,1.91,6.78h-4.55c-.36-.72-.97-2.71-1.62-5.74-.72-3.17-1.84-4.18-4.36-4.26h-2.24v9.99h-4.4V.76ZM205.15,11.47h2.63c2.99,0,4.83-1.59,4.83-4,0-2.63-1.84-3.9-4.73-3.9-1.41,0-2.31.11-2.74.22v7.68Z"></path><path class="cls-1" d="M0,31.59c.57-.11,1.4-.18,2.26-.18,1.18,0,1.97.19,2.52.66.45.38.7.95.7,1.65,0,1.06-.72,1.77-1.49,2.04v.04c.59.22.95.79,1.14,1.58.27,1.02.49,1.97.64,2.28h-1.53c-.12-.24-.33-.91-.55-1.93-.24-1.07-.62-1.41-1.47-1.43h-.75v3.36H0v-8.06ZM1.48,35.2h.89c1.01,0,1.63-.53,1.63-1.35,0-.89-.62-1.31-1.59-1.31-.47,0-.78.04-.92.07v2.58Z"></path><path class="cls-1" d="M175.74,31.59c.57-.11,1.4-.18,2.26-.18,1.18,0,1.97.19,2.52.66.45.38.7.95.7,1.65,0,1.06-.72,1.77-1.49,2.04v.04c.59.22.95.79,1.14,1.58.27,1.02.49,1.97.64,2.28h-1.53c-.12-.24-.33-.91-.55-1.93-.24-1.07-.62-1.41-1.47-1.43h-.75v3.36h-1.48v-8.06ZM177.22,35.2h.89c1.01,0,1.63-.53,1.63-1.35,0-.89-.62-1.31-1.59-1.31-.47,0-.78.04-.92.07v2.58Z"></path><path class="cls-1" d="M182.41,31.59c.57-.11,1.4-.18,2.26-.18,1.18,0,1.97.19,2.52.66.45.38.7.95.7,1.65,0,1.06-.29,1.76-1.17,2.44-.62.48-2.83.31-2.83.31v3.18h-1.48v-8.06ZM183.89,35.2h.89c1.01,0,1.63-.53,1.63-1.35,0-.89-.62-1.31-1.59-1.31-.47,0-.78.04-.92.07v2.58Z"></path><path class="cls-1" d="M197.64,31.59c.57-.11,1.4-.18,2.26-.18,1.18,0,1.97.19,2.52.66.45.38.7.95.7,1.65,0,1.06-.72,1.77-1.49,2.04v.04c.59.22.95.79,1.14,1.58.27,1.02.49,1.97.64,2.28h-1.53c-.12-.24-.33-.91-.55-1.93-.24-1.07-.62-1.41-1.47-1.43h-.75v3.36h-1.48v-8.06ZM199.12,35.2h.89c1.01,0,1.63-.53,1.63-1.35,0-.89-.62-1.31-1.59-1.31-.47,0-.78.04-.92.07v2.58Z"></path><polygon class="cls-1" points="11.48 36.02 8.4 36.02 8.4 38.42 11.84 38.42 11.84 39.65 6.9 39.65 6.9 31.47 11.66 31.47 11.66 32.7 8.4 32.7 8.4 34.81 11.48 34.81 11.48 36.02"></polygon><path class="cls-1" d="M15.02,31.47h1.49v5.3c0,2.26-1.09,3.01-2.71,3.01-.42,0-.93-.07-1.26-.19l.18-1.2c.24.08.57.15.92.15.85,0,1.37-.39,1.37-1.81v-5.25Z"></path><path class="cls-1" d="M19.63,31.47v4.77c0,1.6.67,2.34,1.67,2.34,1.08,0,1.72-.74,1.72-2.34v-4.77h1.49v4.67c0,2.52-1.3,3.64-3.26,3.64s-3.12-1.06-3.12-3.63v-4.68h1.49Z"></path><path class="cls-1" d="M28.1,39.65l-2.64-8.18h1.63l1.12,3.72c.32,1.03.59,1.99.8,2.97h.02c.22-.97.52-1.97.84-2.96l1.19-3.74h1.59l-2.83,8.18h-1.71Z"></path><polygon class="cls-1" points="38.09 36.02 35.01 36.02 35.01 38.42 38.46 38.42 38.46 39.65 33.52 39.65 33.52 31.47 38.28 31.47 38.28 32.7 35.01 32.7 35.01 34.81 38.09 34.81 38.09 36.02"></polygon><path class="cls-1" d="M39.76,39.65v-8.18h1.71l2.11,3.51c.53.91,1.02,1.86,1.4,2.74h.02c-.11-1.09-.13-2.15-.13-3.4v-2.85h1.38v8.18h-1.55l-2.13-3.6c-.52-.9-1.06-1.89-1.46-2.81h-.05c.06,1.07.08,2.15.08,3.49v2.92h-1.38Z"></path><polygon class="cls-1" points="52.54 36.02 49.46 36.02 49.46 38.42 52.91 38.42 52.91 39.65 47.97 39.65 47.97 31.47 52.72 31.47 52.72 32.7 49.46 32.7 49.46 34.81 52.54 34.81 52.54 36.02"></polygon><path class="cls-1" d="M54.19,38.02c.47.28,1.21.52,1.98.52.95,0,1.48-.45,1.48-1.12,0-.62-.41-.98-1.44-1.36-1.36-.47-2.22-1.2-2.22-2.37,0-1.35,1.12-2.35,2.9-2.35.89,0,1.53.19,1.95.4l-.35,1.21c-.3-.16-.87-.39-1.64-.39-.95,0-1.35.5-1.35.98,0,.63.47.92,1.57,1.33,1.42.55,2.1,1.26,2.1,2.43,0,1.32-.99,2.45-3.09,2.45-.87,0-1.77-.24-2.22-.51l.34-1.24Z"></path><path class="cls-1" d="M66.37,39.41c-.35.17-1.13.36-2.12.36-2.6,0-4.17-1.63-4.17-4.11,0-2.69,1.88-4.31,4.38-4.31.98,0,1.67.19,1.98.35l-.32,1.19c-.39-.17-.93-.32-1.6-.32-1.66,0-2.86,1.04-2.86,3.01,0,1.8,1.04,2.94,2.85,2.94.59,0,1.23-.12,1.63-.29l.24,1.18Z"></path><rect class="cls-1" x="67.65" y="31.47" width="1.49" height="8.18"></rect><path class="cls-1" d="M77.75,36.31c-.05-1.06-.11-2.32-.1-3.43h-.04c-.27.99-.61,2.1-.97,3.13l-1.2,3.54h-1.14l-1.09-3.49c-.32-1.04-.61-2.16-.82-3.18h-.02c-.04,1.07-.08,2.37-.15,3.48l-.18,3.29h-1.4l.55-8.18h1.96l1.07,3.29c.29.96.55,1.93.75,2.84h.04c.22-.89.5-1.89.81-2.85l1.13-3.28h1.94l.47,8.18h-1.46l-.16-3.34Z"></path><polygon class="cls-1" points="85.46 36.02 82.37 36.02 82.37 38.42 85.82 38.42 85.82 39.65 80.88 39.65 80.88 31.47 85.64 31.47 85.64 32.7 82.37 32.7 82.37 34.81 85.46 34.81 85.46 36.02"></polygon><polygon class="cls-1" points="156.01 36.02 152.93 36.02 152.93 38.42 156.37 38.42 156.37 39.65 151.43 39.65 151.43 31.47 156.19 31.47 156.19 32.7 152.93 32.7 152.93 34.81 156.01 34.81 156.01 36.02"></polygon><path class="cls-1" d="M87.12,39.65v-8.18h1.71l2.11,3.51c.53.91,1.02,1.86,1.4,2.74h.02c-.11-1.09-.13-2.15-.13-3.4v-2.85h1.38v8.18h-1.55l-2.13-3.6c-.52-.9-1.06-1.89-1.46-2.81h-.05c.06,1.07.08,2.15.08,3.49v2.92h-1.38Z"></path><polygon class="cls-1" points="96.9 32.72 94.57 32.72 94.57 31.47 100.74 31.47 100.74 32.72 98.39 32.72 98.39 39.65 96.9 39.65 96.9 32.72"></polygon><path class="cls-1" d="M104.71,39.78c-2.32,0-3.77-1.77-3.77-4.16s1.59-4.28,3.89-4.28,3.78,1.81,3.78,4.14c0,2.74-1.66,4.31-3.89,4.31h-.01ZM104.78,38.58c1.44,0,2.26-1.33,2.26-3.05,0-1.54-.76-3-2.26-3s-2.27,1.42-2.27,3.05.82,3,2.26,3h.01Z"></path><path class="cls-1" d="M170.19,39.78c-2.32,0-3.77-1.77-3.77-4.16s1.59-4.28,3.89-4.28,3.78,1.81,3.78,4.14c0,2.74-1.66,4.31-3.89,4.31h-.01ZM170.26,38.58c1.44,0,2.26-1.33,2.26-3.05,0-1.54-.76-3-2.26-3s-2.27,1.42-2.27,3.05.82,3,2.26,3h.01Z"></path><path class="cls-1" d="M192.53,39.78c-2.32,0-3.77-1.77-3.77-4.16s1.59-4.28,3.89-4.28,3.78,1.81,3.78,4.14c0,2.74-1.66,4.31-3.89,4.31h-.01ZM192.6,38.58c1.44,0,2.26-1.33,2.26-3.05,0-1.54-.76-3-2.26-3s-2.27,1.42-2.27,3.05.82,3,2.26,3h.01Z"></path><polygon class="cls-1" points="112.41 31.47 117.14 31.47 117.14 32.7 113.9 32.7 113.9 34.95 116.91 34.95 116.91 36.17 113.9 36.17 113.9 39.65 112.41 39.65 112.41 31.47"></polygon><path class="cls-1" d="M119.35,37.33l-.7,2.32h-1.54l2.62-8.18h1.9l2.66,8.18h-1.6l-.74-2.32h-2.6ZM121.69,36.2l-.64-2.01c-.16-.5-.29-1.06-.41-1.53h-.02c-.12.47-.24,1.04-.39,1.53l-.63,2.01h2.1Z"></path><path class="cls-1" d="M131.03,39.41c-.35.17-1.13.36-2.12.36-2.6,0-4.17-1.63-4.17-4.11,0-2.69,1.88-4.31,4.38-4.31.98,0,1.67.19,1.98.35l-.32,1.19c-.39-.17-.93-.32-1.6-.32-1.66,0-2.86,1.04-2.86,3.01,0,1.8,1.04,2.94,2.85,2.94.59,0,1.23-.12,1.63-.29l.24,1.18Z"></path><path class="cls-1" d="M166.25,39.41c-.35.17-1.13.36-2.12.36-2.6,0-4.17-1.63-4.17-4.11,0-2.69,1.88-4.31,4.38-4.31.98,0,1.67.19,1.98.35l-.32,1.19c-.39-.17-.93-.32-1.6-.32-1.66,0-2.86,1.04-2.86,3.01,0,1.8,1.04,2.94,2.85,2.94.59,0,1.23-.12,1.63-.29l.24,1.18Z"></path><rect class="cls-1" x="132.31" y="31.47" width="1.49" height="8.18"></rect><path class="cls-1" d="M137.15,37.33l-.7,2.32h-1.54l2.62-8.18h1.9l2.66,8.18h-1.6l-.74-2.32h-2.6ZM139.49,36.2l-.64-2.01c-.16-.5-.29-1.06-.41-1.53h-.02c-.12.47-.24,1.04-.39,1.53l-.63,2.01h2.1Z"></path><polygon class="cls-1" points="143.23 31.47 144.72 31.47 144.72 38.4 148.08 38.4 148.08 39.65 143.23 39.65 143.23 31.47"></polygon><path class="cls-1" d="M206.18,37.33l-.7,2.32h-1.54l2.62-8.18h1.9l2.66,8.18h-1.6l-.74-2.32h-2.6ZM208.52,36.2l-.64-2.01c-.16-.5-.29-1.06-.41-1.53h-.02c-.12.47-.24,1.04-.39,1.53l-.63,2.01h2.1Z"></path><polygon class="cls-1" points="212.25 31.47 213.75 31.47 213.75 38.4 217.11 38.4 217.11 39.65 212.25 39.65 212.25 31.47"></polygon></g></svg> 